<svg xmlns="http://www.w3.org/2000/svg" width="448" height="448"><rect id="backgroundrect" width="100%" height="100%" x="0" y="0" fill="none" stroke="none"/><g class="currentLayer" style=""><title>Layer 1</title><path d="M400,0 H48 C21.5,0 0,21.5 0,48 v352 c0,26.5 21.5,48 48,48 h352 c26.5,0 48,-21.5 48,-48 V48 c0,-26.5 -21.5,-48 -48,-48 zM277.3,383.7 c-8.4,1.5 -11.5,-3.7 -11.5,-8 c0,-5.4 0.2,-33 0.2,-55.3 c0,-15.6 -5.2,-25.5 -11.3,-30.7 c37,-4.1 76,-9.2 76,-73.1 c0,-18.2 -6.5,-27.3 -17.1,-39 c1.7000000000000002,-4.3 7.4,-22 -1.7000000000000002,-45 c-13.9,-4.3 -45.7,17.9 -45.7,17.9 c-13.2,-3.7 -27.5,-5.6 -41.6,-5.6 c-14.1,0 -28.4,1.9 -41.6,5.6 c0,0 -31.8,-22.2 -45.7,-17.9 c-9.1,22.9 -3.5,40.6 -1.7000000000000002,45 c-10.6,11.7 -15.6,20.8 -15.6,39 c0,63.6 37.3,69 74.3,73.1 c-4.8,4.3 -9.1,11.7 -10.6,22.3 c-9.5,4.3 -33.8,11.7 -48.3,-13.9 c-9.1,-15.8 -25.5,-17.1 -25.5,-17.1 c-16.2,-0.2 -1.1,10.2 -1.1,10.2 c10.8,5 18.4,24.2 18.4,24.2 c9.7,29.7 56.1,19.7 56.1,19.7 c0,13.9 0.2,36.5 0.2,40.6 c0,4.3 -3,9.5 -11.5,8 c-66,-22.1 -112.2,-84.9 -112.2,-158.3 c0,-91.8 70.2,-161.5 162,-161.5 S388,133.6 388,225.39999999999998 c0.1,73.4 -44.7,136.3 -110.7,158.3 zm-98.1,-61.1 c-1.9,0.4 -3.7,-0.4 -3.9,-1.7000000000000002 c-0.2,-1.5 1.1,-2.8 3,-3.2 c1.9,-0.2 3.7,0.6000000000000001 3.9,1.9 c0.30000000000000004,1.3 -1,2.6 -3,3 zm-9.5,-0.9 c0,1.3 -1.5,2.4 -3.5,2.4 c-2.2,0.2 -3.7,-0.9 -3.7,-2.4 c0,-1.3 1.5,-2.4 3.5,-2.4 c1.9,-0.2 3.7,0.9 3.7,2.4 zm-13.7,-1.1 c-0.4,1.3 -2.4,1.9 -4.1,1.3 c-1.9,-0.4 -3.2,-1.9 -2.8,-3.2 c0.4,-1.3 2.4,-1.9 4.1,-1.5 c2,0.6000000000000001 3.3,2.1 2.8,3.4 zm-12.3,-5.4 c-0.9,1.1 -2.8,0.9 -4.3,-0.6000000000000001 c-1.5,-1.3 -1.9,-3.2 -0.9,-4.1 c0.9,-1.1 2.8,-0.9 4.3,0.6000000000000001 c1.3,1.3 1.8,3.3 0.9,4.1 zm-9.1,-9.1 c-0.9,0.6000000000000001 -2.6,0 -3.7,-1.5 s-1.1,-3.2 0,-3.9 c1.1,-0.9 2.8,-0.2 3.7,1.3 c1.1,1.5 1.1,3.3 0,4.1 zm-6.5,-9.7 c-0.9,0.9 -2.4,0.4 -3.5,-0.6000000000000001 c-1.1,-1.3 -1.3,-2.8 -0.4,-3.5 c0.9,-0.9 2.4,-0.4 3.5,0.6000000000000001 c1.1,1.3 1.3,2.8 0.4,3.5 zm-6.7,-7.4 c-0.4,0.9 -1.7000000000000002,1.1 -2.8,0.4 c-1.3,-0.6000000000000001 -1.9,-1.7000000000000002 -1.5,-2.6 c0.4,-0.6000000000000001 1.5,-0.9 2.8,-0.4 c1.3,0.7000000000000001 1.9,1.8 1.5,2.6 z" id="svg_1" class=""/></g></svg>