<svg xmlns="http://www.w3.org/2000/svg" width="448" height="448"><rect id="backgroundrect" width="100%" height="100%" x="0" y="0" fill="none" stroke="none" class="" style=""/><g class="currentLayer" style=""><title>Layer 1</title><path d="M400,0 H48 C21.5,0 0,21.5 0,48 v352 c0,26.5 21.5,48 48,48 h352 c26.5,0 48,-21.5 48,-48 V48 c0,-26.5 -21.5,-48 -48,-48 zm-48.9,158.8 c0.2,2.8 0.2,5.7 0.2,8.5 c0,86.7 -66,186.6 -186.6,186.6 c-37.2,0 -71.7,-10.8 -100.7,-29.4 c5.3,0.6000000000000001 10.4,0.8 15.8,0.8 c30.7,0 58.9,-10.4 81.4,-28 c-28.8,-0.6000000000000001 -53,-19.5 -61.3,-45.5 c10.1,1.5 19.2,1.5 29.6,-1.2 c-30,-6.1 -52.5,-32.5 -52.5,-64.4 v-0.8 c8.7,4.9 18.9,7.9 29.6,8.3 a65.447,65.447 0 0 1 -29.2,-54.6 c0,-12.2 3.2,-23.4 8.9,-33.1 c32.3,39.8 80.8,65.8 135.2,68.6 c-9.3,-44.5 24,-80.6 64,-80.6 c18.9,0 35.9,7.9 47.9,20.7 c14.8,-2.8 29,-8.3 41.6,-15.8 c-4.9,15.2 -15.2,28 -28.8,36.1 c13.2,-1.4 26,-5.1 37.8,-10.2 c-8.9,13.1 -20.1,24.7 -32.9,34 z" id="svg_1" class="" fill-opacity="1" fill="#1da1f2"/></g></svg>