<svg xmlns="http://www.w3.org/2000/svg" width="448" height="448"><rect id="backgroundrect" width="100%" height="100%" x="0" y="0" fill="none" stroke="none"/><g class="currentLayer" style=""><title>Layer 1</title><path d="M186.8,170.1 l95.2,54.1 l-95.2,54.1 V170.1 zM448,48 v352 c0,26.5 -21.5,48 -48,48 H48 c-26.5,0 -48,-21.5 -48,-48 V48 c0,-26.5 21.5,-48 48,-48 h352 c26.5,0 48,21.5 48,48 zm-42,176.3 s0,-59.6 -7.6,-88.2 c-4.2,-15.8 -16.5,-28.2 -32.2,-32.4 C337.9,96 224,96 224,96 s-113.9,0 -142.2,7.7 c-15.7,4.2 -28,16.6 -32.2,32.4 c-7.6,28.5 -7.6,88.2 -7.6,88.2 s0,59.6 7.6,88.2 c4.2,15.8 16.5,27.7 32.2,31.9 C110.1,352 224,352 224,352 s113.9,0 142.2,-7.7 c15.7,-4.2 28,-16.1 32.2,-31.9 c7.6,-28.5 7.6,-88.1 7.6,-88.1 z" id="svg_1" class="" fill="#ff0000" fill-opacity="1"/></g></svg>